<svg xmlns="http://www.w3.org/2000/svg" width="128" height="128" class="icon" viewBox="0 0 1024 1024"><path fill="#F05542" d="M145.622 0c-44.799 0-79.998 36.812-79.998 81.61v860.78c0 44.798 35.2 81.61 79.998 81.61h732.782a81.97 81.97 0 0 0 81.61-81.61V324.804L657.61 0H145.622z"/><path fill="#FFF" d="M657.61 0v233.594c0 25.6 17.612 92.798 97.61 92.798h204.794L657.61 0zM226.209 708.13c.41-1.792.973-3.508 1.715-5.095l2.483-5.401a99.53 99.53 0 0 0 5.837-17.382l5.862-24.012a2497.986 2497.986 0 0 1 9.6-38.246 295.877 295.877 0 0 1 5.785-19.123l7.04-20.633 7.424-21.887c2.509-7.475 4.761-15.257 6.758-23.244a3.84 3.84 0 0 0 .154-1.203c0-.794-.256-1.306-.743-1.51s-1.152-.308-1.945-.308c-2.509 0-4.583-.384-6.22-1.126a10.189 10.189 0 0 1-5.914-7.04 29.183 29.183 0 0 1 .998-15.437c1.05-2.636 2.406-4.71 4.045-6.144s3.456-2.508 5.401-3.148 3.84-1.178 5.709-1.587 3.481-.82 4.864-1.28 2.406-1.28 2.995-2.483c.998-2.1 1.92-4.327 2.765-6.682s1.92-4.531 3.225-6.528 2.893-3.66 4.813-4.94 4.403-1.946 7.5-1.946c2.202 0 4.147.589 5.863 1.792s3.174 2.688 4.428 4.505 2.33 3.738 3.226 5.786l2.406 5.632a310.008 310.008 0 0 1 43.8 4.198c7.501 1.408 15.027 3.507 22.58 6.298s14.36 6.425 20.402 10.88 11.008 9.701 14.848 15.743 5.785 12.979 5.785 20.787c0 3.993-.46 8.14-1.357 12.44l-1.05 5.249c-.793 4.198-2.482 8.09-5.017 11.699s-5.427 6.86-8.627 9.753c-8.908 8.192-18.662 15.078-29.26 20.633s-21.657 10.214-33.151 14.028-23.244 6.99-35.25 9.6-23.859 5.043-35.558 7.347l-4.198.589c-2.304.307-3.66 1.152-4.045 2.56-1.997 6.912-3.584 12.953-4.736 18.15s-2.227 10.163-3.225 14.924l-2.995 14.26c-.999 4.76-2.253 10.034-3.738 15.82-.512 1.894-1.408 4.147-2.688 6.758s-2.841 5.043-4.659 7.347-3.865 4.275-6.22 5.913-4.813 2.483-7.424 2.483c-1.792 0-3.354-.512-4.66-1.51s-2.38-2.278-3.225-3.814-1.51-3.226-1.945-5.018-.666-3.507-.666-5.094v-1.715c0-.538 0-1.127.205-1.639zm59.544-110.846-.82 2.637a73.829 73.829 0 0 0-1.714 6.451 11.008 11.008 0 0 0-.308 2.022c0 .512.077.922.23 1.28s.487.538.973.538c.308 0 1.255-.128 2.842-.384s3.533-.563 5.785-.973 4.685-.845 7.27-1.357 5.095-.998 7.501-1.51a343.16 343.16 0 0 0 42.956-12.595c7.347-2.688 14.387-5.606 21.068-8.704s12.646-6.4 17.843-9.907c5.504-3.711 9.907-7.398 13.21-11.11s4.94-7.654 4.94-11.852c0-2.509-.333-4.736-.973-6.682s-1.382-3.737-2.176-5.324c-2.995-4.89-6.758-8.755-11.238-11.546s-9.395-4.89-14.694-6.297-10.854-2.304-16.64-2.688-11.494-.589-17.1-.589c-1.51 0-3.763.103-6.835.307s-6.246.461-9.6.743-6.45.665-9.292 1.126-4.787.973-5.786 1.587c-.512.308-.921.794-1.28 1.51s-.614 1.306-.819 1.793l-3.302 8.32c-1.408 3.532-2.893 7.526-4.506 11.929s-3.276 9.062-5.017 13.951-3.43 9.677-5.018 14.336l-4.428 13.056a167.599 167.599 0 0 0-3.072 9.932zm135.292 95.41c4.608-3.303 9.267-5.377 14.029-6.222s9.779-1.536 15.078-2.022l37.503-151.804-3.38-.077c-1.842-.051-3.89-.205-6.143-.46s-4.48-.666-6.681-1.28-3.84-1.46-4.941-2.56a54.552 54.552 0 0 1-4.045-6.503c-.69-1.331-1.305-2.713-1.792-4.121s-.742-2.79-.742-4.199c0-2.304.973-4.224 2.918-5.785s4.352-2.79 7.194-3.738 5.913-1.612 9.215-2.022 6.298-.589 9.011-.589c12.595 0 24.269.384 35.02 1.127s20.813 2.38 30.156 4.864 18.15 6.041 26.393 10.649 16.128 10.752 23.629 18.457a81.435 81.435 0 0 1 8.012 9.753 74.238 74.238 0 0 1 11.494 25.42c1.203 4.839 1.792 9.984 1.792 15.386a95.793 95.793 0 0 1-1.664 17.382 115.53 115.53 0 0 1-30.54 54.68c-6.963 6.963-14.566 12.979-22.886 18.073s-16.895 9.549-25.804 13.337-17.945 7.091-27.16 9.907-18.15 5.3-26.854 7.5h.153c-3.891 1.204-8.09 2.254-12.595 3.15s-9.062 1.638-13.644 2.252-9.165 1.076-13.721 1.434-8.832.538-12.826.538c-4.403 0-8.09-.282-11.11-.82s-5.427-1.305-7.27-2.252-3.174-2.023-3.968-3.226-1.203-2.509-1.203-3.891c0-1.997.563-4.07 1.715-6.22s3.072-4.225 5.657-6.119zm65.996-43.059-3.738 15.744c-1.28 5.401-2.56 10.7-3.737 15.897l3.456-.743a309.47 309.47 0 0 0 21.913-5.99 212.987 212.987 0 0 0 32.639-12.979 178.428 178.428 0 0 0 34.866-22.297c5.402-4.403 10.137-9.113 14.259-14.182s7.373-10.342 9.83-15.897 3.686-11.315 3.686-17.33c0-6.093-1.203-11.879-3.61-17.332s-5.631-10.495-9.676-15.154-8.755-8.807-14.105-12.442-10.982-6.732-16.768-9.343-11.673-4.583-17.612-5.914-11.57-2.022-16.87-2.022c-7.5 19.404-13.9 39.09-19.2 59.109s-10.418 40.267-15.333 60.875zm228.013-96.458c-.793 1.203-1.817 3.276-3.072 6.22s-2.56 6.349-3.89 10.189-2.689 7.936-4.046 12.236-2.61 8.32-3.737 12.083-2.125 7.04-2.918 9.907-1.306 4.736-1.51 5.632c-.206 1.1-.564 2.74-1.127 4.94l-1.434 5.71c11.213-3.79 22.272-6.938 33.228-9.447a146.94 146.94 0 0 1 39.68-3.584c2.815.103 5.554.487 8.242 1.127s5.018 1.664 6.963 3.072 2.919 3.404 2.919 5.99l-.154 1.869a18.252 18.252 0 0 1-3.226 8.473 9.037 9.037 0 0 1-4.275 3.302 34.825 34.825 0 0 0-3.225-.153h-3.226c-7.09 0-14.233.614-21.375 1.868s-14.361 2.944-21.606 5.095-14.464 4.71-21.683 7.654-14.386 6.067-21.58 9.37l-15.155 65.56c-.205 1.689-1.024 3.225-2.483 4.581s-2.867 2.023-4.275 2.023h-3.61c-3.788 0-6.425-1.562-7.884-4.66s-2.176-7.09-2.176-12.005c0-4.096.358-8.576 1.05-13.414s1.51-9.575 2.406-14.182l2.406-12.595c.717-3.79 1.05-6.707 1.05-8.704-1.203-1.69-2.407-3.507-3.61-5.402s-1.792-4.25-1.792-7.04c0-4.403 1.152-7.91 3.456-10.495s5.35-5.146 9.14-7.654c.409-.308.818-.845 1.28-1.639s.844-1.69 1.202-2.688.64-1.996.896-2.995l.666-2.56 6.144-22.194a1206.216 1206.216 0 0 1 16.127-54.527l3.968-12.083c.41-1.305 1.075-3.149 2.023-5.555s2.099-4.761 3.456-7.04 2.867-4.3 4.582-5.99 3.558-2.56 5.555-2.56c4.505 0 7.577.384 9.216 1.126s2.713 1.716 3.225 2.919l1.357 3.302c1.613-.205 3.865-.563 6.835-1.126s5.99-1.178 9.139-1.87 6.067-1.381 8.78-2.021 4.66-1.178 5.863-1.588c6.707-1.792 12.85-3.353 18.457-4.659s10.905-2.38 15.897-3.225 9.805-1.485 14.413-1.869 9.24-.589 13.951-.589c2.202 0 4.25.103 6.144.307s3.533.564 4.864 1.127 2.432 1.357 3.225 2.406 1.204 2.432 1.204 4.122a14.617 14.617 0 0 1-2.535 7.423 15.616 15.616 0 0 1-9.471 6.503c-.692.205-1.946.486-3.738.819l-6.22 1.126-7.501 1.28-7.578 1.28c-3.788.896-8.063 1.869-12.825 2.919s-9.702 2.227-14.848 3.532-10.316 2.688-15.513 4.199-10.112 3.046-14.694 4.659-8.73 3.25-12.364 4.94-6.554 3.43-8.653 5.223z"/></svg>